<svg width="205" height="183" viewBox="0 0 205 183" fill="none" xmlns="http://www.w3.org/2000/svg">
<g clip-path="url(#clip0_315_2)">
<circle cx="105" cy="99" r="68.5" fill="#549BDC" stroke="black" stroke-width="3"/>
<path d="M88.896 131.692C88.896 133.108 88.644 134.38 88.14 135.508C87.66 136.612 87.036 137.584 86.268 138.424C85.524 139.264 84.744 140.008 83.928 140.656C82.968 141.4 81.768 141.772 80.328 141.772C79.872 141.772 79.548 141.76 79.356 141.736C79.164 141.688 79.032 141.592 78.96 141.448C78.888 141.304 78.792 141.052 78.672 140.692C78.648 140.62 78.636 140.512 78.636 140.368C78.636 140.176 78.672 140.032 78.744 139.936C78.84 139.84 78.936 139.888 79.032 140.08C79.152 140.392 79.296 140.608 79.464 140.728C79.632 140.824 79.92 140.872 80.328 140.872C80.952 140.872 81.456 140.752 81.84 140.512C82.248 140.248 82.644 139.972 83.028 139.684C83.796 139.108 84.516 138.448 85.188 137.704C85.884 136.936 86.448 136.048 86.88 135.04C87.312 134.032 87.528 132.88 87.528 131.584C87.528 130.672 87.3 129.904 86.844 129.28C86.388 128.656 85.776 128.164 85.008 127.804C84.24 127.42 83.4 127.144 82.488 126.976C81.576 126.808 80.664 126.724 79.752 126.724C79.368 126.724 78.972 126.748 78.564 126.796C78.18 126.844 77.808 126.892 77.448 126.94C76.224 127.036 75.228 127.168 74.46 127.336C73.716 127.504 73.08 127.768 72.552 128.128C72.024 128.464 71.496 128.956 70.968 129.604C70.68 129.94 70.5 130.444 70.428 131.116C70.356 131.788 70.32 132.4 70.32 132.952C70.32 133.984 70.428 134.764 70.644 135.292C70.86 135.82 71.412 136.084 72.3 136.084C72.636 136.084 73.056 135.976 73.56 135.76C74.064 135.52 74.556 135.232 75.036 134.896C75.54 134.536 75.912 134.164 76.152 133.78C76.32 133.516 76.512 133.384 76.728 133.384C76.896 133.384 76.98 133.504 76.98 133.744C76.98 133.936 76.896 134.236 76.728 134.644C76.656 134.812 76.44 135.028 76.08 135.292C75.744 135.556 75.336 135.82 74.856 136.084C74.376 136.324 73.896 136.528 73.416 136.696C72.96 136.864 72.588 136.948 72.3 136.948C71.556 136.948 70.896 136.732 70.32 136.3C69.744 135.868 69.288 135.292 68.952 134.572C68.64 133.852 68.484 133.072 68.484 132.232C68.484 131.512 68.7 130.912 69.132 130.432C69.564 129.928 69.936 129.484 70.248 129.1C71.136 128.044 72.192 127.204 73.416 126.58C74.664 125.956 76.272 125.572 78.24 125.428C78.648 125.38 79.044 125.344 79.428 125.32C79.812 125.296 80.196 125.284 80.58 125.284C81.996 125.284 83.328 125.536 84.576 126.04C85.848 126.52 86.88 127.24 87.672 128.2C88.488 129.136 88.896 130.3 88.896 131.692ZM82.164 127.696C82.188 127.696 82.212 127.696 82.236 127.696C82.26 127.672 82.284 127.66 82.308 127.66C82.428 127.66 82.488 127.72 82.488 127.84C82.488 128.08 82.32 128.26 81.984 128.38C81.192 128.572 80.628 128.896 80.292 129.352C79.98 129.784 79.692 130.372 79.428 131.116C79.068 132.172 78.816 133.156 78.672 134.068C78.528 134.956 78.432 135.868 78.384 136.804C78.336 137.74 78.264 138.808 78.168 140.008C78.072 141.352 77.856 142.684 77.52 144.004C77.208 145.324 76.752 146.524 76.152 147.604C75.552 148.66 74.784 149.512 73.848 150.16C72.912 150.808 71.772 151.132 70.428 151.132C69.636 151.132 68.892 150.844 68.196 150.268C67.5 149.692 66.936 148.96 66.504 148.072C66.096 147.208 65.892 146.356 65.892 145.516C65.892 144.82 66.036 144.232 66.324 143.752C66.612 143.248 66.852 142.768 67.044 142.312C67.452 141.664 67.908 141.04 68.412 140.44C68.94 139.816 69.552 139.312 70.248 138.928C70.944 138.52 71.748 138.316 72.66 138.316C73.788 138.316 74.544 138.616 74.928 139.216C75.312 139.816 75.504 140.644 75.504 141.7C75.504 142.948 75.156 143.908 74.46 144.58C73.764 145.252 72.78 145.588 71.508 145.588C71.124 145.588 70.8 145.468 70.536 145.228C70.272 144.964 70.14 144.628 70.14 144.22C70.14 143.884 70.224 143.656 70.392 143.536C70.584 143.416 70.776 143.308 70.968 143.212C71.016 143.188 71.076 143.176 71.148 143.176C71.268 143.176 71.376 143.236 71.472 143.356C71.568 143.452 71.616 143.56 71.616 143.68C71.616 143.848 71.532 143.944 71.364 143.968C71.292 143.992 71.208 144.016 71.112 144.04C71.016 144.04 70.968 144.1 70.968 144.22C70.968 144.556 71.148 144.724 71.508 144.724C73.596 144.724 74.64 143.716 74.64 141.7C74.64 140.956 74.52 140.356 74.28 139.9C74.04 139.42 73.5 139.18 72.66 139.18C71.868 139.18 71.172 139.36 70.572 139.72C69.972 140.08 69.456 140.536 69.024 141.088C68.592 141.64 68.208 142.204 67.872 142.78C67.632 143.164 67.392 143.56 67.152 143.968C66.912 144.376 66.792 144.892 66.792 145.516C66.792 146.212 66.9 146.932 67.116 147.676C67.356 148.396 67.704 149.008 68.16 149.512C68.616 150.016 69.156 150.268 69.78 150.268C71.028 150.268 72.06 149.98 72.876 149.404C73.716 148.828 74.376 148.06 74.856 147.1C75.336 146.14 75.696 145.06 75.936 143.86C76.2 142.636 76.38 141.4 76.476 140.152C76.62 138.352 76.848 136.744 77.16 135.328C77.496 133.912 77.94 132.4 78.492 130.792C78.804 129.88 79.248 129.196 79.824 128.74C80.424 128.284 81.204 127.936 82.164 127.696ZM104.166 133.42C104.214 134.044 104.178 134.872 104.058 135.904C103.962 136.912 103.77 137.992 103.482 139.144C103.218 140.296 102.834 141.388 102.33 142.42C101.802 143.548 101.178 144.472 100.458 145.192C99.7382 145.912 99.0062 146.488 98.2622 146.92C97.5182 147.328 96.8342 147.652 96.2102 147.892C95.6102 148.132 95.1302 148.324 94.7702 148.468C94.4102 148.636 93.9782 148.72 93.4742 148.72C93.0182 148.72 92.5862 148.648 92.1782 148.504C91.7702 148.36 91.4462 148.192 91.2062 148C91.0382 147.856 90.7982 147.712 90.4862 147.568C90.1742 147.4 89.8502 147.16 89.5142 146.848C89.1782 146.536 88.8902 146.092 88.6502 145.516C88.4102 144.916 88.2782 144.112 88.2542 143.104C88.2302 142.624 88.2302 142.156 88.2542 141.7C88.3022 141.244 88.3382 140.8 88.3622 140.368C87.8342 139.792 87.3902 139.168 87.0302 138.496C86.6942 137.8 86.5262 137.116 86.5262 136.444C86.5262 135.892 86.6462 135.388 86.8862 134.932C87.6782 133.444 88.7342 132.196 90.0542 131.188C91.3742 130.156 92.6702 129.376 93.9422 128.848C94.5902 128.128 95.2622 127.456 95.9582 126.832C96.6782 126.208 97.3982 125.644 98.1182 125.14C98.5982 124.924 98.9342 124.816 99.1262 124.816C99.4142 124.816 99.5582 124.936 99.5582 125.176C99.5582 125.512 99.3662 125.788 98.9822 126.004C98.4302 126.292 97.9142 126.604 97.4342 126.94C96.9542 127.276 96.4862 127.636 96.0302 128.02C96.4862 127.9 96.8702 127.816 97.1822 127.768C97.5182 127.696 97.7702 127.66 97.9382 127.66C99.0662 127.66 100.086 127.948 100.998 128.524C101.934 129.076 102.678 129.796 103.23 130.684C103.806 131.548 104.118 132.46 104.166 133.42ZM101.97 133.924C101.97 132.412 101.706 131.272 101.178 130.504C100.674 129.736 100.038 129.232 99.2702 128.992C98.5262 128.728 97.7702 128.596 97.0022 128.596C96.8102 128.596 96.6182 128.596 96.4262 128.596C96.2582 128.596 96.0902 128.608 95.9222 128.632C95.8262 128.632 95.7302 128.644 95.6342 128.668C95.5382 128.668 95.4302 128.692 95.3102 128.74C94.2782 129.772 93.4022 130.924 92.6822 132.196C91.9862 133.444 91.4222 134.716 90.9902 136.012C90.5822 137.308 90.2702 138.556 90.0542 139.756C90.6302 140.068 91.2662 140.308 91.9622 140.476C92.6582 140.644 93.3422 140.728 94.0142 140.728C94.8542 140.728 95.5982 140.62 96.2462 140.404C96.8942 140.164 97.3022 139.816 97.4702 139.36C97.6142 138.952 97.6862 138.616 97.6862 138.352C97.6862 137.944 97.5542 137.668 97.2902 137.524C97.0502 137.38 96.7502 137.32 96.3902 137.344C95.9102 137.368 95.5742 137.344 95.3822 137.272C95.1902 137.176 95.0942 137.056 95.0942 136.912C95.0942 136.84 95.1182 136.768 95.1662 136.696C95.2142 136.624 95.2622 136.552 95.3102 136.48C95.5982 136.192 95.9222 136.048 96.2822 136.048C96.7862 136.048 97.3382 136.348 97.9382 136.948C98.4662 137.716 98.7302 138.412 98.7302 139.036C98.7302 139.636 98.5262 140.14 98.1182 140.548C97.7102 140.956 97.1942 141.292 96.5702 141.556C95.9702 141.82 95.3462 142.024 94.6982 142.168C94.0502 142.288 93.4742 142.372 92.9702 142.42C92.4662 142.444 92.1302 142.444 91.9622 142.42C91.2662 142.276 90.5462 142 89.8022 141.592C89.8022 141.808 89.7902 142.024 89.7662 142.24C89.7662 142.456 89.7662 142.684 89.7662 142.924C89.7662 143.86 89.8862 144.628 90.1262 145.228C90.3662 145.828 90.6542 146.296 90.9902 146.632C91.3502 146.968 91.6742 147.208 91.9622 147.352C92.1302 147.424 92.3222 147.484 92.5382 147.532C92.7782 147.58 93.0422 147.604 93.3302 147.604C93.9542 147.604 94.6622 147.472 95.4542 147.208C96.2462 146.92 97.0622 146.416 97.9022 145.696C98.7662 144.976 99.5822 143.956 100.35 142.636C100.686 142.084 100.95 141.412 101.142 140.62C101.358 139.804 101.526 138.976 101.646 138.136C101.766 137.272 101.85 136.468 101.898 135.724C101.946 134.98 101.97 134.38 101.97 133.924ZM92.8982 130.072C92.1542 130.624 91.4462 131.26 90.7742 131.98C90.1262 132.676 89.5742 133.372 89.1182 134.068C88.6622 134.74 88.3742 135.328 88.2542 135.832C88.1582 136.144 88.1102 136.492 88.1102 136.876C88.1102 137.5 88.2902 138.052 88.6502 138.532C89.0102 136.9 89.5622 135.376 90.3062 133.96C91.0502 132.544 91.9142 131.248 92.8982 130.072ZM128.89 138.172C128.914 138.364 128.926 138.568 128.926 138.784C128.926 138.976 128.926 139.168 128.926 139.36C128.926 140.392 128.83 141.412 128.638 142.42C128.446 143.404 128.146 144.208 127.738 144.832C127.57 145.072 127.354 145.432 127.09 145.912C126.826 146.392 126.562 146.74 126.298 146.956C125.434 147.676 124.39 148.228 123.166 148.612C121.966 149.02 120.73 149.308 119.458 149.476C118.186 149.644 117.022 149.728 115.966 149.728C114.862 149.728 113.83 149.5 112.87 149.044C111.934 148.612 111.01 148.144 110.098 147.64C109.618 148.096 109.078 148.468 108.478 148.756C107.902 149.044 107.278 149.188 106.606 149.188C105.934 149.188 105.274 149.14 104.626 149.044C104.002 148.972 103.486 148.768 103.078 148.432C102.67 148.096 102.466 147.58 102.466 146.884C102.466 146.5 102.694 146.14 103.15 145.804C103.606 145.444 104.134 145.18 104.734 145.012C104.926 144.964 105.13 144.928 105.346 144.904C105.562 144.856 105.814 144.832 106.102 144.832C106.294 144.832 106.486 144.844 106.678 144.868C106.87 144.892 107.086 144.94 107.326 145.012C107.758 145.132 108.178 145.3 108.586 145.516C109.018 145.708 109.438 145.924 109.846 146.164C110.326 145.684 110.746 145.12 111.106 144.472C111.49 143.824 111.826 143.14 112.114 142.42C111.202 142.156 110.338 141.712 109.522 141.088C108.706 140.464 108.034 139.732 107.506 138.892C107.002 138.028 106.75 137.14 106.75 136.228C106.75 135.052 107.026 133.876 107.578 132.7C108.13 131.524 108.862 130.444 109.774 129.46C110.71 128.476 111.754 127.696 112.906 127.12C114.058 126.52 115.246 126.22 116.47 126.22C118.342 126.22 120.058 126.532 121.618 127.156C123.202 127.756 124.558 128.692 125.686 129.964C126.838 131.212 127.678 132.796 128.206 134.716C128.302 135.028 128.422 135.496 128.566 136.12C128.71 136.72 128.818 137.404 128.89 138.172ZM126.694 139.252C126.718 138.916 126.73 138.592 126.73 138.28C126.754 137.944 126.766 137.62 126.766 137.308C126.766 136.708 126.73 136.156 126.658 135.652C126.586 135.148 126.442 134.728 126.226 134.392C126.034 134.08 125.89 133.768 125.794 133.456C125.698 133.144 125.578 132.796 125.434 132.412C125.29 132.028 125.026 131.596 124.642 131.116C124.114 130.42 123.514 129.868 122.842 129.46C122.194 129.052 121.594 128.62 121.042 128.164C120.514 127.708 119.914 127.396 119.242 127.228C118.57 127.036 117.754 126.94 116.794 126.94C115.738 126.94 114.718 127.228 113.734 127.804C112.774 128.356 111.91 129.1 111.142 130.036C110.398 130.972 109.798 131.992 109.342 133.096C108.91 134.176 108.694 135.244 108.694 136.3C108.694 137.02 108.802 137.788 109.018 138.604C109.234 139.42 109.642 140.104 110.242 140.656C110.53 140.92 110.854 141.136 111.214 141.304C111.598 141.472 111.982 141.604 112.366 141.7C112.558 141.148 112.726 140.608 112.87 140.08C113.014 139.528 113.146 139.012 113.266 138.532C113.482 137.74 113.83 136.804 114.31 135.724C114.814 134.62 115.378 133.624 116.002 132.736C115.906 132.712 115.81 132.7 115.714 132.7C115.618 132.676 115.522 132.664 115.426 132.664C115.114 132.664 114.802 132.712 114.49 132.808C114.178 132.904 113.854 133.024 113.518 133.168C113.23 133.312 112.99 133.576 112.798 133.96C112.63 134.32 112.474 134.668 112.33 135.004C112.21 135.34 112.066 135.508 111.898 135.508C111.826 135.508 111.73 135.448 111.61 135.328C111.442 135.136 111.358 134.896 111.358 134.608C111.358 134.392 111.406 134.176 111.502 133.96C111.622 133.72 111.754 133.492 111.898 133.276C112.162 132.868 112.474 132.592 112.834 132.448C113.194 132.304 113.602 132.172 114.058 132.052C114.418 131.98 114.802 131.944 115.21 131.944C115.642 131.944 116.074 131.98 116.506 132.052C116.914 131.572 117.334 131.176 117.766 130.864C118.198 130.552 118.606 130.396 118.99 130.396C119.47 130.396 119.878 130.6 120.214 131.008C120.358 131.152 120.43 131.32 120.43 131.512C120.43 131.68 120.358 131.764 120.214 131.764C120.094 131.764 119.962 131.68 119.818 131.512C119.554 131.248 119.278 131.116 118.99 131.116C118.726 131.116 118.45 131.224 118.162 131.44C117.874 131.656 117.598 131.944 117.334 132.304C117.886 132.496 118.258 132.712 118.45 132.952C118.978 133.552 119.374 134.176 119.638 134.824C119.926 135.448 120.07 136.108 120.07 136.804C120.07 137.38 119.962 138.016 119.746 138.712C118.906 141.352 116.854 142.672 113.59 142.672C113.518 142.672 113.446 142.672 113.374 142.672C113.302 142.648 113.23 142.636 113.158 142.636C112.87 143.38 112.534 144.112 112.15 144.832C111.79 145.528 111.37 146.176 110.89 146.776C111.658 147.232 112.45 147.64 113.266 148C114.106 148.36 115.006 148.54 115.966 148.54C117.67 148.54 119.254 148.192 120.718 147.496C122.182 146.776 123.514 145.924 124.714 144.94C125.41 144.364 125.902 143.572 126.19 142.564C126.478 141.532 126.646 140.428 126.694 139.252ZM118.63 138.46C118.774 137.98 118.846 137.524 118.846 137.092C118.846 136.396 118.702 135.736 118.414 135.112C118.15 134.488 117.826 133.984 117.442 133.6C117.226 133.384 117.01 133.204 116.794 133.06C116.266 133.948 115.786 134.956 115.354 136.084C114.946 137.188 114.646 138.1 114.454 138.82C114.334 139.276 114.19 139.768 114.022 140.296C113.854 140.824 113.662 141.364 113.446 141.916C113.566 141.916 113.686 141.928 113.806 141.952C113.926 141.952 114.034 141.952 114.13 141.952C115.474 141.952 116.482 141.628 117.154 140.98C117.826 140.332 118.318 139.492 118.63 138.46ZM108.766 146.92C108.19 146.632 107.578 146.38 106.93 146.164C106.426 146.02 106.042 145.948 105.778 145.948C105.49 145.948 105.31 146.032 105.238 146.2C105.19 146.344 105.166 146.524 105.166 146.74C105.166 147.076 105.19 147.304 105.238 147.424C105.31 147.544 105.406 147.604 105.526 147.604C105.67 147.604 105.862 147.568 106.102 147.496C106.366 147.4 106.666 147.352 107.002 147.352C107.338 147.352 107.65 147.316 107.938 147.244C108.25 147.148 108.526 147.04 108.766 146.92ZM145.237 128.992C144.949 129.568 144.637 130.156 144.301 130.756C143.965 131.332 143.581 132.028 143.149 132.844C142.717 133.66 142.201 134.716 141.601 136.012C141.025 137.26 140.509 138.544 140.053 139.864C139.597 141.16 139.237 142.384 138.973 143.536C138.709 144.688 138.589 145.66 138.613 146.452C138.997 146.284 139.381 146.152 139.765 146.056C140.173 145.96 140.605 145.912 141.061 145.912C141.613 145.912 142.069 145.936 142.429 145.984C142.813 146.008 143.281 146.056 143.833 146.128C143.953 146.152 144.049 146.26 144.121 146.452C144.217 146.62 144.265 146.8 144.265 146.992C144.265 147.352 144.169 147.52 143.977 147.496C143.449 147.448 142.993 147.4 142.609 147.352C142.249 147.304 141.805 147.28 141.277 147.28C140.821 147.28 140.389 147.316 139.981 147.388C139.597 147.46 139.201 147.556 138.793 147.676C138.769 147.796 138.685 147.88 138.541 147.928C138.397 147.976 138.277 147.952 138.181 147.856C137.653 148.024 137.137 148.216 136.633 148.432C136.129 148.672 135.601 148.9 135.049 149.116C135.025 149.14 134.977 149.152 134.905 149.152C134.809 149.152 134.725 149.104 134.653 149.008C134.581 148.936 134.545 148.852 134.545 148.756C134.545 148.588 134.629 148.468 134.797 148.396C135.349 148.18 135.865 147.928 136.345 147.64C136.849 147.352 137.353 147.076 137.857 146.812C137.833 146.62 137.809 146.428 137.785 146.236C137.785 146.044 137.785 145.84 137.785 145.624C137.785 144.424 137.977 143.044 138.361 141.484C138.769 139.924 139.345 138.34 140.089 136.732C140.449 135.94 140.713 135.292 140.881 134.788C141.049 134.284 141.181 133.852 141.277 133.492C141.397 133.132 141.565 132.76 141.781 132.376C141.469 132.64 141.169 132.844 140.881 132.988C140.593 133.132 140.245 133.336 139.837 133.6C139.429 133.84 138.865 134.248 138.145 134.824C137.977 134.968 137.833 135.04 137.713 135.04C137.569 135.04 137.497 134.944 137.497 134.752C137.497 134.488 137.593 134.296 137.785 134.176C138.769 133.624 139.837 132.868 140.989 131.908C142.141 130.924 143.353 129.808 144.625 128.56C144.721 128.464 144.829 128.416 144.949 128.416C145.069 128.416 145.165 128.476 145.237 128.596C145.309 128.692 145.309 128.824 145.237 128.992Z" fill="black"/>
<path d="M79.3433 56.3397C90.051 57.3396 95.1766 69.5186 96.3433 74.3519L79.3433 99.3519C77.8433 100.019 74.3433 101.352 72.3433 101.352C69.8433 101.352 67.8433 100.352 67.8433 98.8519V94.8519C67.8433 92.8519 66.3433 91.8519 64.8433 90.8519C63.3433 89.8519 58.8433 90.3519 57.3433 87.8519C55.8433 85.3519 52.5513 80.3396 53.0513 75.3396C53.5513 70.3396 56.6471 65.7435 58.551 63.8396C65.551 56.8397 66.8875 55.1766 79.3433 56.3397Z" fill="#818181"/>
<path d="M127.509 58.1462C117.425 61.8834 115.626 74.974 115.75 79.9446L138.641 99.6929C140.263 99.9486 143.988 100.331 145.92 99.813C148.335 99.166 150.008 97.6824 149.62 96.2335L148.585 92.3698C148.067 90.438 149.257 89.0838 150.447 87.7297C151.637 86.3755 156.113 85.6938 156.915 82.8907C157.717 80.0877 159.599 74.3942 157.822 69.6939C156.045 64.9936 151.865 61.3555 149.534 60.0092C140.96 55.0595 139.239 53.799 127.509 58.1462Z" fill="#818181"/>
<circle cx="72" cy="75" r="9" fill="black"/>
<circle cx="137" cy="74" r="9" fill="black"/>
<mask id="mask0_315_2" style="mask-type:alpha" maskUnits="userSpaceOnUse" x="65" y="73" width="79" height="60">
<rect x="65" y="73" width="79" height="60" fill="#D9D9D9"/>
</mask>
<g mask="url(#mask0_315_2)">
<circle cx="105" cy="95" r="29" fill="#A2A2A2"/>
<mask id="mask1_315_2" style="mask-type:alpha" maskUnits="userSpaceOnUse" x="114" y="83" width="14" height="28">
<path d="M127.659 97C127.659 104.732 124.601 111 120.829 111C117.058 111 114 104.732 114 97C114 89.268 117.058 83 120.829 83C124.601 83 127.659 89.268 127.659 97Z" fill="black"/>
</mask>
<g mask="url(#mask1_315_2)">
<path d="M130.122 106.128C121.107 90.2374 108.61 102.755 103.488 111L104.512 80.2683C112.48 80.768 128.551 81.9173 129.098 82.517C129.644 83.1166 130.008 98.5075 130.122 106.128Z" fill="black"/>
</g>
<mask id="mask2_315_2" style="mask-type:alpha" maskUnits="userSpaceOnUse" x="83" y="83" width="14" height="28">
<path d="M82.9999 97C82.9999 104.732 86.0575 111 89.8292 111C93.6009 111 96.6584 104.732 96.6584 97C96.6584 89.268 93.6009 83 89.8292 83C86.0575 83 82.9999 89.268 82.9999 97Z" fill="black"/>
</mask>
<g mask="url(#mask2_315_2)">
<path d="M77.5365 106.128C86.5511 90.2374 99.0487 102.755 104.171 111L103.146 80.2683C95.1788 80.768 79.1072 81.9173 78.5609 82.517C78.0146 83.1166 77.6503 98.5075 77.5365 106.128Z" fill="black"/>
</g>
<circle cx="5" cy="5" r="5" transform="matrix(-1 0 0 1 96 102)" fill="#D9D9D9"/>
<circle cx="5" cy="5" r="5" transform="matrix(-1 0 0 1 124 102)" fill="#D9D9D9"/>
<mask id="mask3_315_2" style="mask-type:alpha" maskUnits="userSpaceOnUse" x="76" y="66" width="58" height="58">
<circle cx="105" cy="95" r="29" fill="#A2A2A2"/>
</mask>
<g mask="url(#mask3_315_2)">
<mask id="mask4_315_2" style="mask-type:alpha" maskUnits="userSpaceOnUse" x="99" y="106" width="12" height="23">
<rect x="99" y="106" width="11.6667" height="23" fill="#D9D9D9"/>
</mask>
<g mask="url(#mask4_315_2)">
<path d="M113.167 102.392C106.5 120.973 99.0554 110.134 96.1665 102.392C95.5554 113.366 94.2999 135.404 94.1665 135.765C94.0332 136.126 107 134.863 113.5 134.186L113.167 102.392Z" fill="#D9D9D9"/>
</g>
</g>
<ellipse cx="105" cy="99" rx="4" ry="8" fill="black"/>
</g>
</g>
<defs>
<clipPath id="clip0_315_2">
<rect width="205" height="183" fill="white"/>
</clipPath>
</defs>
</svg>
